<svg xmlns="http://www.w3.org/2000/svg" viewBox="0 0 64 64" fill="none">
  <defs>
    <radialGradient id="p" cx="50%" cy="40%" r="70%">
      <stop offset="0%" stop-color="#FBCFE8" />
      <stop offset="100%" stop-color="#F9A8D4" />
    </radialGradient>
  </defs>
  <g transform="translate(32 32)">
    <g fill="url(#p)">
      <path d="M0 -22 C 6 -14 6 -6 0 -2 C -6 -6 -6 -14 0 -22 Z" transform="rotate(0)"/>
      <path d="M0 -22 C 6 -14 6 -6 0 -2 C -6 -6 -6 -14 0 -22 Z" transform="rotate(72)"/>
      <path d="M0 -22 C 6 -14 6 -6 0 -2 C -6 -6 -6 -14 0 -22 Z" transform="rotate(144)"/>
      <path d="M0 -22 C 6 -14 6 -6 0 -2 C -6 -6 -6 -14 0 -22 Z" transform="rotate(216)"/>
      <path d="M0 -22 C 6 -14 6 -6 0 -2 C -6 -6 -6 -14 0 -22 Z" transform="rotate(288)"/>
    </g>
    <circle r="3.5" fill="#FDE68A" />
  </g>
</svg>
